<svg version="1.1" xmlns="http://www.w3.org/2000/svg" xmlns:xlink="http://www.w3.org/1999/xlink" width="1189" height="1628"><defs/><g><g><rect fill="#C0C0C0" stroke="none" x="1927" y="775" width="217.5999999999999" height="15" transform="matrix(1 0 0 1 -1374 -446)" fill-opacity="0.2"/></g><g><rect fill="#C0C0C0" stroke="none" x="1927" y="789" width="544" height="282" transform="matrix(1 0 0 1 -1374 -446)" fill-opacity="0.2"/></g><g><rect fill="#FFD8D8" stroke="none" x="1920" y="783" width="544" height="281" transform="matrix(1 0 0 1 -1374 -446)"/></g><g><path fill="none" stroke="#FFD8D8" paint-order="fill stroke markers" d=" M 546 337 L 1090 337 L 1090 618 L 546 618 L 546 337 Z Z" stroke-miterlimit="10" stroke-dasharray=""/></g><g><rect fill="#FFD8D8" stroke="none" x="1920" y="768" width="217.5999999999999" height="15" transform="matrix(1 0 0 1 -1374 -446)"/></g><g><path fill="none" stroke="#FFD8D8" paint-order="fill stroke markers" d=" M 546 322 L 763.5999999999999 322 L 763.5999999999999 337 L 546 337 L 546 322 Z Z" stroke-miterlimit="10" stroke-dasharray=""/></g><g><rect fill="#FFD8D8" stroke="none" x="1920" y="782" width="544" height="282" transform="matrix(1 0 0 1 -1374 -446)"/></g><g><path fill="none" stroke="#FFD8D8" paint-order="fill stroke markers" d=" M 546 336 L 1090 336 L 1090 618 L 546 618 L 546 336 Z Z" stroke-miterlimit="10" stroke-dasharray=""/></g><g><g><path fill="none" stroke="none"/><text fill="#000000" stroke="none" font-family="Arial" font-size="13px" font-style="normal" font-weight="bold" text-decoration="undefined" x="2192.5" y="796.5" text-anchor="middle" dominant-baseline="central" transform="matrix(1 0 0 1 -1374 -446)">Identify Access Management</text></g></g><g><rect fill="#C0C0C0" stroke="none" x="1831" y="463" width="291.1999999999998" height="15" transform="matrix(1 0 0 1 -1374 -446)" fill-opacity="0.2"/></g><g><rect fill="#C0C0C0" stroke="none" x="1831" y="477" width="728" height="266" transform="matrix(1 0 0 1 -1374 -446)" fill-opacity="0.2"/></g><g><rect fill="#FFD8D8" stroke="none" x="1824" y="471" width="728" height="265" transform="matrix(1 0 0 1 -1374 -446)"/></g><g><path fill="none" stroke="#FFD8D8" paint-order="fill stroke markers" d=" M 450 25 L 1178 25 L 1178 290 L 450 290 L 450 25 Z Z" stroke-miterlimit="10" stroke-dasharray=""/></g><g><rect fill="#FFD8D8" stroke="none" x="1824" y="456" width="291.1999999999998" height="15" transform="matrix(1 0 0 1 -1374 -446)"/></g><g><path fill="none" stroke="#FFD8D8" paint-order="fill stroke markers" d=" M 450 10 L 741.1999999999998 10 L 741.1999999999998 25 L 450 25 L 450 10 Z Z" stroke-miterlimit="10" stroke-dasharray=""/></g><g><rect fill="#FFD8D8" stroke="none" x="1824" y="470" width="728" height="266" transform="matrix(1 0 0 1 -1374 -446)"/></g><g><path fill="none" stroke="#FFD8D8" paint-order="fill stroke markers" d=" M 450 24 L 1178 24 L 1178 290 L 450 290 L 450 24 Z Z" stroke-miterlimit="10" stroke-dasharray=""/></g><g><g><path fill="none" stroke="none"/><text fill="#000000" stroke="none" font-family="Arial" font-size="13px" font-style="normal" font-weight="bold" text-decoration="undefined" x="2188.5" y="484.5" text-anchor="middle" dominant-baseline="central" transform="matrix(1 0 0 1 -1374 -446)">User Management</text></g></g><g><path fill="#ffffff" stroke="none" paint-order="stroke fill markers" d=" M 98.74862304687508 827.8499999999999 C 98.74862304687508 822.9622795199998 102.70642541487496 819 107.588623046875 819 C 112.47082067887504 819 116.42862304687492 822.9622795199998 116.42862304687492 827.8499999999999 C 116.42862304687492 832.73772048 112.47082067887504 836.7 107.588623046875 836.7 C 102.70642541487496 836.7 98.74862304687508 832.73772048 98.74862304687508 827.8499999999999 Z"/></g><g><path fill="none" stroke="#00A9FF" paint-order="fill stroke markers" d=" M 98.74862304687508 827.8499999999999 C 98.74862304687508 822.9622795199998 102.70642541487496 819 107.588623046875 819 C 112.47082067887504 819 116.42862304687492 822.9622795199998 116.42862304687492 827.8499999999999 C 116.42862304687492 832.73772048 112.47082067887504 836.7 107.588623046875 836.7 C 102.70642541487496 836.7 98.74862304687508 832.73772048 98.74862304687508 827.8499999999999 Z" stroke-miterlimit="10" stroke-dasharray=""/></g><g><path fill="none" stroke="#00A9FF" paint-order="fill stroke markers" d=" M 107.588623046875 836.7 L 107.588623046875 854.3" stroke-miterlimit="10" stroke-dasharray=""/></g><g><path fill="none" stroke="#00A9FF" paint-order="fill stroke markers" d=" M 98.2286230468751 843.3 L 116.9486230468749 843.3" stroke-miterlimit="10" stroke-dasharray=""/></g><g><path fill="none" stroke="#00A9FF" paint-order="fill stroke markers" d=" M 107.588623046875 854.3 L 94.588623046875 872" stroke-miterlimit="10" stroke-dasharray=""/></g><g><path fill="none" stroke="#00A9FF" paint-order="fill stroke markers" d=" M 107.588623046875 854.3 L 120.588623046875 872" stroke-miterlimit="10" stroke-dasharray=""/></g><g><g><path fill="none" stroke="none"/><text fill="#000000" stroke="none" font-family="Arial" font-size="13px" font-style="normal" font-weight="bold" text-decoration="undefined" x="1482.088623046875" y="1332.5" text-anchor="middle" dominant-baseline="central" transform="matrix(1 0 0 1 -1374 -446)">User</text></g></g><g><path fill="#ffffff" stroke="none" paint-order="stroke fill markers" d=" M 218.74862304687508 819.8499999999999 C 218.74862304687508 814.9622795199998 222.70642541487496 811 227.588623046875 811 C 232.47082067887504 811 236.42862304687492 814.9622795199998 236.42862304687492 819.8499999999999 C 236.42862304687492 824.73772048 232.47082067887504 828.7 227.588623046875 828.7 C 222.70642541487496 828.7 218.74862304687508 824.73772048 218.74862304687508 819.8499999999999 Z"/></g><g><path fill="none" stroke="#5DE45D" paint-order="fill stroke markers" d=" M 218.74862304687508 819.8499999999999 C 218.74862304687508 814.9622795199998 222.70642541487496 811 227.588623046875 811 C 232.47082067887504 811 236.42862304687492 814.9622795199998 236.42862304687492 819.8499999999999 C 236.42862304687492 824.73772048 232.47082067887504 828.7 227.588623046875 828.7 C 222.70642541487496 828.7 218.74862304687508 824.73772048 218.74862304687508 819.8499999999999 Z" stroke-miterlimit="10" stroke-dasharray=""/></g><g><path fill="none" stroke="#5DE45D" paint-order="fill stroke markers" d=" M 227.588623046875 828.7 L 227.588623046875 846.3" stroke-miterlimit="10" stroke-dasharray=""/></g><g><path fill="none" stroke="#5DE45D" paint-order="fill stroke markers" d=" M 218.2286230468751 835.3 L 236.9486230468749 835.3" stroke-miterlimit="10" stroke-dasharray=""/></g><g><path fill="none" stroke="#5DE45D" paint-order="fill stroke markers" d=" M 227.588623046875 846.3 L 214.588623046875 864" stroke-miterlimit="10" stroke-dasharray=""/></g><g><path fill="none" stroke="#5DE45D" paint-order="fill stroke markers" d=" M 227.588623046875 846.3 L 240.588623046875 864" stroke-miterlimit="10" stroke-dasharray=""/></g><g><g><path fill="none" stroke="none"/><text fill="#000000" stroke="none" font-family="Arial" font-size="13px" font-style="normal" font-weight="bold" text-decoration="undefined" x="1602.088623046875" y="1324.5" text-anchor="middle" dominant-baseline="central" transform="matrix(1 0 0 1 -1374 -446)">Admin</text></g></g><g><path fill="#ffffff" stroke="none" paint-order="stroke fill markers" d=" M 26.748623046875082 491.85 C 26.748623046875082 486.96227952000004 30.706425414874957 483 35.588623046875 483 C 40.47082067887504 483 44.42862304687492 486.96227952000004 44.42862304687492 491.85 C 44.42862304687492 496.73772048 40.47082067887504 500.70000000000005 35.588623046875 500.70000000000005 C 30.706425414874957 500.70000000000005 26.748623046875082 496.73772048 26.748623046875082 491.85 Z"/></g><g><path fill="none" stroke="#FF8282" paint-order="fill stroke markers" d=" M 26.748623046875082 491.85 C 26.748623046875082 486.96227952000004 30.706425414874957 483 35.588623046875 483 C 40.47082067887504 483 44.42862304687492 486.96227952000004 44.42862304687492 491.85 C 44.42862304687492 496.73772048 40.47082067887504 500.70000000000005 35.588623046875 500.70000000000005 C 30.706425414874957 500.70000000000005 26.748623046875082 496.73772048 26.748623046875082 491.85 Z" stroke-miterlimit="10" stroke-dasharray=""/></g><g><path fill="none" stroke="#FF8282" paint-order="fill stroke markers" d=" M 35.588623046875 500.70000000000005 L 35.588623046875 518.3" stroke-miterlimit="10" stroke-dasharray=""/></g><g><path fill="none" stroke="#FF8282" paint-order="fill stroke markers" d=" M 26.2286230468751 507.29999999999995 L 44.9486230468749 507.29999999999995" stroke-miterlimit="10" stroke-dasharray=""/></g><g><path fill="none" stroke="#FF8282" paint-order="fill stroke markers" d=" M 35.588623046875 518.3 L 22.588623046875 536" stroke-miterlimit="10" stroke-dasharray=""/></g><g><path fill="none" stroke="#FF8282" paint-order="fill stroke markers" d=" M 35.588623046875 518.3 L 48.588623046875 536" stroke-miterlimit="10" stroke-dasharray=""/></g><g><g><path fill="none" stroke="none"/><text fill="#000000" stroke="none" font-family="Arial" font-size="13px" font-style="normal" font-weight="bold" text-decoration="undefined" x="1410.088623046875" y="996.5" text-anchor="middle" dominant-baseline="central" transform="matrix(1 0 0 1 -1374 -446)">Guest</text></g></g><g><path fill="#C0C0C0" stroke="none" paint-order="stroke fill markers" d=" M 505 130.5 C 505 120.835016 527.8334752000001 113 556 113 C 584.1665247999999 113 607 120.835016 607 130.5 C 607 140.164984 584.1665247999999 148 556 148 C 527.8334752000001 148 505 140.164984 505 130.5 Z" fill-opacity="0.2"/></g><g><path fill="#ffffff" stroke="none" paint-order="stroke fill markers" d=" M 498 123.5 C 498 113.835016 520.8334752000001 106 549 106 C 577.1665247999999 106 600 113.835016 600 123.5 C 600 133.164984 577.1665247999999 141 549 141 C 520.8334752000001 141 498 133.164984 498 123.5 Z"/></g><g><path fill="none" stroke="#000000" paint-order="fill stroke markers" d=" M 498 123.5 C 498 113.835016 520.8334752000001 106 549 106 C 577.1665247999999 106 600 113.835016 600 123.5 C 600 133.164984 577.1665247999999 141 549 141 C 520.8334752000001 141 498 133.164984 498 123.5 Z" stroke-miterlimit="10" stroke-dasharray=""/></g><g><g><path fill="none" stroke="none"/><text fill="#000000" stroke="none" font-family="Arial" font-size="13px" font-style="normal" font-weight="bold" text-decoration="undefined" x="1923" y="570.5" text-anchor="middle" dominant-baseline="central" transform="matrix(1 0 0 1 -1374 -446)">Đăng ký</text></g></g><g><path fill="#C0C0C0" stroke="none" paint-order="stroke fill markers" d=" M 921 506.5 C 921 496.835016 944.7289056 489 974 489 C 1003.2710944 489 1027 496.835016 1027 506.5 C 1027 516.164984 1003.2710944 524 974 524 C 944.7289056 524 921 516.164984 921 506.5 Z" fill-opacity="0.2"/></g><g><path fill="#ffffff" stroke="none" paint-order="stroke fill markers" d=" M 914 499.5 C 914 489.835016 937.7289056 482 967 482 C 996.2710944 482 1020 489.835016 1020 499.5 C 1020 509.164984 996.2710944 517 967 517 C 937.7289056 517 914 509.164984 914 499.5 Z"/></g><g><path fill="none" stroke="#000000" paint-order="fill stroke markers" d=" M 914 499.5 C 914 489.835016 937.7289056 482 967 482 C 996.2710944 482 1020 489.835016 1020 499.5 C 1020 509.164984 996.2710944 517 967 517 C 937.7289056 517 914 509.164984 914 499.5 Z" stroke-miterlimit="10" stroke-dasharray=""/></g><g><g><path fill="none" stroke="none"/><text fill="#000000" stroke="none" font-family="Arial" font-size="13px" font-style="normal" font-weight="bold" text-decoration="undefined" x="2341" y="946.5" text-anchor="middle" dominant-baseline="central" transform="matrix(1 0 0 1 -1374 -446)">Khóa User</text></g></g><g><path fill="#C0C0C0" stroke="none" paint-order="stroke fill markers" d=" M 921 466.5 C 921 456.835016 952.1162064 449 990.5 449 C 1028.8837936 449 1060 456.835016 1060 466.5 C 1060 476.164984 1028.8837936 484 990.5 484 C 952.1162064 484 921 476.164984 921 466.5 Z" fill-opacity="0.2"/></g><g><path fill="#ffffff" stroke="none" paint-order="stroke fill markers" d=" M 914 459.5 C 914 449.835016 945.1162064 442 983.5 442 C 1021.8837936 442 1053 449.835016 1053 459.5 C 1053 469.164984 1021.8837936 477 983.5 477 C 945.1162064 477 914 469.164984 914 459.5 Z"/></g><g><path fill="none" stroke="#000000" paint-order="fill stroke markers" d=" M 914 459.5 C 914 449.835016 945.1162064 442 983.5 442 C 1021.8837936 442 1053 449.835016 1053 459.5 C 1053 469.164984 1021.8837936 477 983.5 477 C 945.1162064 477 914 469.164984 914 459.5 Z" stroke-miterlimit="10" stroke-dasharray=""/></g><g><g><path fill="none" stroke="none"/><text fill="#000000" stroke="none" font-family="Arial" font-size="13px" font-style="normal" font-weight="bold" text-decoration="undefined" x="2357.5" y="906.5" text-anchor="middle" dominant-baseline="central" transform="matrix(1 0 0 1 -1374 -446)">Tìm kiếm User</text></g></g><g><path fill="#C0C0C0" stroke="none" paint-order="stroke fill markers" d=" M 905 554.5 C 905 544.835016 935.4446336000001 537 973 537 C 1010.5553663999999 537 1041 544.835016 1041 554.5 C 1041 564.164984 1010.5553663999999 572 973 572 C 935.4446336000001 572 905 564.164984 905 554.5 Z" fill-opacity="0.2"/></g><g><path fill="#ffffff" stroke="none" paint-order="stroke fill markers" d=" M 898 547.5 C 898 537.835016 928.4446336000001 530 966 530 C 1003.5553663999999 530 1034 537.835016 1034 547.5 C 1034 557.164984 1003.5553663999999 565 966 565 C 928.4446336000001 565 898 557.164984 898 547.5 Z"/></g><g><path fill="none" stroke="#000000" paint-order="fill stroke markers" d=" M 898 547.5 C 898 537.835016 928.4446336000001 530 966 530 C 1003.5553663999999 530 1034 537.835016 1034 547.5 C 1034 557.164984 1003.5553663999999 565 966 565 C 928.4446336000001 565 898 557.164984 898 547.5 Z" stroke-miterlimit="10" stroke-dasharray=""/></g><g><g><path fill="none" stroke="none"/><text fill="#000000" stroke="none" font-family="Arial" font-size="13px" font-style="normal" font-weight="bold" text-decoration="undefined" x="2340" y="994.5" text-anchor="middle" dominant-baseline="central" transform="matrix(1 0 0 1 -1374 -446)">Mở khóa User</text></g></g><g><path fill="#C0C0C0" stroke="none" paint-order="stroke fill markers" d=" M 841 594.5 C 841 584.835016 874.1309247999998 577 915 577 C 955.8690752000002 577 989 584.835016 989 594.5 C 989 604.164984 955.8690752000002 612 915 612 C 874.1309247999998 612 841 604.164984 841 594.5 Z" fill-opacity="0.2"/></g><g><path fill="#ffffff" stroke="none" paint-order="stroke fill markers" d=" M 834 587.5 C 834 577.835016 867.1309247999998 570 908 570 C 948.8690752000002 570 982 577.835016 982 587.5 C 982 597.164984 948.8690752000002 605 908 605 C 867.1309247999998 605 834 597.164984 834 587.5 Z"/></g><g><path fill="none" stroke="#000000" paint-order="fill stroke markers" d=" M 834 587.5 C 834 577.835016 867.1309247999998 570 908 570 C 948.8690752000002 570 982 577.835016 982 587.5 C 982 597.164984 948.8690752000002 605 908 605 C 867.1309247999998 605 834 597.164984 834 587.5 Z" stroke-miterlimit="10" stroke-dasharray=""/></g><g><g><path fill="none" stroke="none"/><text fill="#000000" stroke="none" font-family="Arial" font-size="13px" font-style="normal" font-weight="bold" text-decoration="undefined" x="2282" y="1034.5" text-anchor="middle" dominant-baseline="central" transform="matrix(1 0 0 1 -1374 -446)">Thêm mới User</text></g></g><g><path fill="#C0C0C0" stroke="none" paint-order="stroke fill markers" d=" M 641 186.5 C 641 176.835016 665.4004783999999 169 695.5 169 C 725.5995216000001 169 750 176.835016 750 186.5 C 750 196.164984 725.5995216000001 204 695.5 204 C 665.4004783999999 204 641 196.164984 641 186.5 Z" fill-opacity="0.2"/></g><g><path fill="#ffffff" stroke="none" paint-order="stroke fill markers" d=" M 634 179.5 C 634 169.835016 658.4004783999999 162 688.5 162 C 718.5995216000001 162 743 169.835016 743 179.5 C 743 189.164984 718.5995216000001 197 688.5 197 C 658.4004783999999 197 634 189.164984 634 179.5 Z"/></g><g><path fill="none" stroke="#000000" paint-order="fill stroke markers" d=" M 634 179.5 C 634 169.835016 658.4004783999999 162 688.5 162 C 718.5995216000001 162 743 169.835016 743 179.5 C 743 189.164984 718.5995216000001 197 688.5 197 C 658.4004783999999 197 634 189.164984 634 179.5 Z" stroke-miterlimit="10" stroke-dasharray=""/></g><g><g><path fill="none" stroke="none"/><text fill="#000000" stroke="none" font-family="Arial" font-size="13px" font-style="normal" font-weight="bold" text-decoration="undefined" x="2062.5" y="626.5" text-anchor="middle" dominant-baseline="central" transform="matrix(1 0 0 1 -1374 -446)">Đăng nhập</text></g></g><g><path fill="none" stroke="#46D346" paint-order="fill stroke markers" d=" M 202 850 L 133 850" stroke-miterlimit="10" stroke-dasharray=""/></g><g><path fill="#FFFFFF" stroke="none" paint-order="stroke fill markers" d=" M 153.3253497152482 841.580964487968 L 133 850 L 153.3253497152482 858.419035512032"/></g><g><path fill="none" stroke="#46D346" paint-order="fill stroke markers" d=" M 153.3253497152482 841.580964487968 L 133 850 L 153.3253497152482 858.419035512032 L 153.3253497152482 841.580964487968" stroke-miterlimit="10" stroke-dasharray=""/></g><g><path fill="none" stroke="#E55959" paint-order="fill stroke markers" d=" M 35 482 L 35 147 L 35 147 A 8 8 0 0 1 43 139 L 498 139" stroke-miterlimit="10" stroke-dasharray=""/></g><g><path fill="none" stroke="#E55959" paint-order="fill stroke markers" d=" M 61 538 L 178 538 L 178 538 A 8 8 0 0 0 186 530 L 186 178 L 186 178 A 8 8 0 0 1 194 170 L 634 170" stroke-miterlimit="10" stroke-dasharray=""/></g><g><path fill="none" stroke="#4BBAF2" paint-order="fill stroke markers" d=" M 107 818 L 107 187 L 107 187 A 8 8 0 0 1 115 179 L 634 179" stroke-miterlimit="10" stroke-dasharray=""/></g><g><path fill="none" stroke="#4BBAF2" paint-order="fill stroke markers" d=" M 107 818 L 107 251 L 107 251 A 8 8 0 0 1 115 243 L 666 243" stroke-miterlimit="10" stroke-dasharray=""/></g><g><path fill="#C0C0C0" stroke="none" paint-order="stroke fill markers" d=" M 673 250.5 C 673 240.835016 714.1897984000002 233 765 233 C 815.8102015999998 233 857 240.835016 857 250.5 C 857 260.164984 815.8102015999998 268 765 268 C 714.1897984000002 268 673 260.164984 673 250.5 Z" fill-opacity="0.2"/></g><g><path fill="#ffffff" stroke="none" paint-order="stroke fill markers" d=" M 666 243.5 C 666 233.835016 707.1897984000002 226 758 226 C 808.8102015999998 226 850 233.835016 850 243.5 C 850 253.164984 808.8102015999998 261 758 261 C 707.1897984000002 261 666 253.164984 666 243.5 Z"/></g><g><path fill="none" stroke="#000000" paint-order="fill stroke markers" d=" M 666 243.5 C 666 233.835016 707.1897984000002 226 758 226 C 808.8102015999998 226 850 233.835016 850 243.5 C 850 253.164984 808.8102015999998 261 758 261 C 707.1897984000002 261 666 253.164984 666 243.5 Z" stroke-miterlimit="10" stroke-dasharray=""/></g><g><g><path fill="none" stroke="none"/><text fill="#000000" stroke="none" font-family="Arial" font-size="13px" font-style="normal" font-weight="bold" text-decoration="undefined" x="2132" y="690.5" text-anchor="middle" dominant-baseline="central" transform="matrix(1 0 0 1 -1374 -446)">Xem profile</text></g></g><g><path fill="#C0C0C0" stroke="none" paint-order="stroke fill markers" d=" M 809 418.5 C 809 408.835016 854.8908080000001 401 911.5 401 C 968.1091919999999 401 1014 408.835016 1014 418.5 C 1014 428.164984 968.1091919999999 436 911.5 436 C 854.8908080000001 436 809 428.164984 809 418.5 Z" fill-opacity="0.2"/></g><g><path fill="#ffffff" stroke="none" paint-order="stroke fill markers" d=" M 802 411.5 C 802 401.835016 847.8908080000001 394 904.5 394 C 961.1091919999999 394 1007 401.835016 1007 411.5 C 1007 421.164984 961.1091919999999 429 904.5 429 C 847.8908080000001 429 802 421.164984 802 411.5 Z"/></g><g><path fill="none" stroke="#000000" paint-order="fill stroke markers" d=" M 802 411.5 C 802 401.835016 847.8908080000001 394 904.5 394 C 961.1091919999999 394 1007 401.835016 1007 411.5 C 1007 421.164984 961.1091919999999 429 904.5 429 C 847.8908080000001 429 802 421.164984 802 411.5 Z" stroke-miterlimit="10" stroke-dasharray=""/></g><g><g><path fill="none" stroke="none"/><text fill="#000000" stroke="none" font-family="Arial" font-size="13px" font-style="normal" font-weight="bold" text-decoration="undefined" x="2278.5" y="858.5" text-anchor="middle" dominant-baseline="central" transform="matrix(1 0 0 1 -1374 -446)">Xem danh sách User</text></g></g><g><path fill="#C0C0C0" stroke="none" paint-order="stroke fill markers" d=" M 929 194.5 C 929 184.835016 986.3075456000001 177 1057 177 C 1127.6924543999999 177 1185 184.835016 1185 194.5 C 1185 204.164984 1127.6924543999999 212 1057 212 C 986.3075456000001 212 929 204.164984 929 194.5 Z" fill-opacity="0.2"/></g><g><path fill="#ffffff" stroke="none" paint-order="stroke fill markers" d=" M 922 187.5 C 922 177.835016 979.3075456000001 170 1050 170 C 1120.6924543999999 170 1178 177.835016 1178 187.5 C 1178 197.164984 1120.6924543999999 205 1050 205 C 979.3075456000001 205 922 197.164984 922 187.5 Z"/></g><g><path fill="none" stroke="#000000" paint-order="fill stroke markers" d=" M 922 187.5 C 922 177.835016 979.3075456000001 170 1050 170 C 1120.6924543999999 170 1178 177.835016 1178 187.5 C 1178 197.164984 1120.6924543999999 205 1050 205 C 979.3075456000001 205 922 197.164984 922 187.5 Z" stroke-miterlimit="10" stroke-dasharray=""/></g><g><g><path fill="none" stroke="none"/><text fill="#000000" stroke="none" font-family="Arial" font-size="13px" font-style="normal" font-weight="bold" text-decoration="undefined" x="2424" y="634.5" text-anchor="middle" dominant-baseline="central" transform="matrix(1 0 0 1 -1374 -446)">Cập nhập thông tin cá nhân</text></g></g><g><path fill="#C0C0C0" stroke="none" paint-order="stroke fill markers" d=" M 969 258.5 C 969 248.835016 997.8776303999998 241 1033.5 241 C 1069.1223696000002 241 1098 248.835016 1098 258.5 C 1098 268.164984 1069.1223696000002 276 1033.5 276 C 997.8776303999998 276 969 268.164984 969 258.5 Z" fill-opacity="0.2"/></g><g><path fill="#ffffff" stroke="none" paint-order="stroke fill markers" d=" M 962 251.5 C 962 241.835016 990.8776303999998 234 1026.5 234 C 1062.1223696000002 234 1091 241.835016 1091 251.5 C 1091 261.164984 1062.1223696000002 269 1026.5 269 C 990.8776303999998 269 962 261.164984 962 251.5 Z"/></g><g><path fill="none" stroke="#000000" paint-order="fill stroke markers" d=" M 962 251.5 C 962 241.835016 990.8776303999998 234 1026.5 234 C 1062.1223696000002 234 1091 241.835016 1091 251.5 C 1091 261.164984 1062.1223696000002 269 1026.5 269 C 990.8776303999998 269 962 261.164984 962 251.5 Z" stroke-miterlimit="10" stroke-dasharray=""/></g><g><g><path fill="none" stroke="none"/><text fill="#000000" stroke="none" font-family="Arial" font-size="13px" font-style="normal" font-weight="bold" text-decoration="undefined" x="2400.5" y="698.5" text-anchor="middle" dominant-baseline="central" transform="matrix(1 0 0 1 -1374 -446)">Đổi mật khẩu</text></g></g><g><path fill="none" stroke="#000000" paint-order="fill stroke markers" d=" M 951 206 L 851 225" stroke-miterlimit="10" stroke-dasharray="3"/></g><g><path fill="none" stroke="#000000" paint-order="fill stroke markers" d=" M 860.1983089718788 218.96749537440257 L 851 225 L 861.7698115777639 227.2385617211654" stroke-miterlimit="10" stroke-dasharray=""/></g><g><rect fill="#ffffff" stroke="none" x="2232" y="640" width="53.49169921875" height="13" transform="matrix(1 0 0 1 -1374 -446)"/></g><g><g><path fill="none" stroke="none"/><text fill="#000000" stroke="none" font-family="Arial" font-size="13px" font-style="normal" font-weight="normal" text-decoration="undefined" x="2258.745849609375" y="646.5" text-anchor="middle" dominant-baseline="central" transform="matrix(1 0 0 1 -1374 -446)">«extend»</text></g></g><g><path fill="none" stroke="#000000" paint-order="fill stroke markers" d=" M 961 249 L 851 246" stroke-miterlimit="10" stroke-dasharray="3"/></g><g><path fill="none" stroke="#000000" paint-order="fill stroke markers" d=" M 861.27365981497 242.06910773407947 L 851 246 L 861.044135100115 250.4850139454228" stroke-miterlimit="10" stroke-dasharray=""/></g><g><rect fill="#ffffff" stroke="none" x="2234" y="700" width="53.49169921875" height="13" transform="matrix(1 0 0 1 -1374 -446)"/></g><g><g><path fill="none" stroke="none"/><text fill="#000000" stroke="none" font-family="Arial" font-size="13px" font-style="normal" font-weight="normal" text-decoration="undefined" x="2260.745849609375" y="706.5" text-anchor="middle" dominant-baseline="central" transform="matrix(1 0 0 1 -1374 -446)">«extend»</text></g></g><g><path fill="#C0C0C0" stroke="none" paint-order="stroke fill markers" d=" M 577 474.5 C 577 464.835016 605.4299152000001 457 640.5 457 C 675.5700848000001 457 704 464.835016 704 474.5 C 704 484.164984 675.5700848000001 492 640.5 492 C 605.4299152000001 492 577 484.164984 577 474.5 Z" fill-opacity="0.2"/></g><g><path fill="#ffffff" stroke="none" paint-order="stroke fill markers" d=" M 570 467.5 C 570 457.835016 598.4299152000001 450 633.5 450 C 668.5700847999999 450 697 457.835016 697 467.5 C 697 477.164984 668.5700847999999 485 633.5 485 C 598.4299152000001 485 570 477.164984 570 467.5 Z"/></g><g><path fill="none" stroke="#000000" paint-order="fill stroke markers" d=" M 570 467.5 C 570 457.835016 598.4299152000001 450 633.5 450 C 668.5700847999999 450 697 457.835016 697 467.5 C 697 477.164984 668.5700847999999 485 633.5 485 C 598.4299152000001 485 570 477.164984 570 467.5 Z" stroke-miterlimit="10" stroke-dasharray=""/></g><g><g><path fill="none" stroke="none"/><text fill="#000000" stroke="none" font-family="Arial" font-size="13px" font-style="normal" font-weight="bold" text-decoration="undefined" x="2007.5" y="914.5" text-anchor="middle" dominant-baseline="central" transform="matrix(1 0 0 1 -1374 -446)">Quản lý User</text></g></g><g><path fill="none" stroke="#000000" paint-order="fill stroke markers" d=" M 812 430 L 698 454" stroke-miterlimit="10" stroke-dasharray="3"/></g><g><path fill="none" stroke="#000000" paint-order="fill stroke markers" d=" M 707.0774785189137 447.7871597687804 L 698 454 L 708.8118880747229 456.025605158875" stroke-miterlimit="10" stroke-dasharray=""/></g><g><rect fill="#ffffff" stroke="none" x="2109" y="911" width="53.49169921875" height="13" transform="matrix(1 0 0 1 -1374 -446)"/></g><g><g><path fill="none" stroke="none"/><text fill="#000000" stroke="none" font-family="Arial" font-size="13px" font-style="normal" font-weight="normal" text-decoration="undefined" x="2135.745849609375" y="917.5" text-anchor="middle" dominant-baseline="central" transform="matrix(1 0 0 1 -1374 -446)">«extend»</text></g></g><g><path fill="none" stroke="#000000" paint-order="fill stroke markers" d=" M 913 461 L 698 466" stroke-miterlimit="10" stroke-dasharray="3"/></g><g><path fill="none" stroke="#000000" paint-order="fill stroke markers" d=" M 708.0620585175943 461.5553427141674 L 698 466 L 708.2577971173491 469.97210250362457" stroke-miterlimit="10" stroke-dasharray=""/></g><g><rect fill="#ffffff" stroke="none" x="2153" y="932" width="53.49169921875" height="13" transform="matrix(1 0 0 1 -1374 -446)"/></g><g><g><path fill="none" stroke="none"/><text fill="#000000" stroke="none" font-family="Arial" font-size="13px" font-style="normal" font-weight="normal" text-decoration="undefined" x="2179.745849609375" y="938.5" text-anchor="middle" dominant-baseline="central" transform="matrix(1 0 0 1 -1374 -446)">«extend»</text></g></g><g><path fill="none" stroke="#000000" paint-order="fill stroke markers" d=" M 913 494 L 698 473" stroke-miterlimit="10" stroke-dasharray="3"/></g><g><path fill="none" stroke="#000000" paint-order="fill stroke markers" d=" M 708.5237563650276 469.7983516792849 L 698 473 L 707.7053267278184 478.177512250714" stroke-miterlimit="10" stroke-dasharray=""/></g><g><rect fill="#ffffff" stroke="none" x="2150" y="952" width="53.49169921875" height="13" transform="matrix(1 0 0 1 -1374 -446)"/></g><g><g><path fill="none" stroke="none"/><text fill="#000000" stroke="none" font-family="Arial" font-size="13px" font-style="normal" font-weight="normal" text-decoration="undefined" x="2176.745849609375" y="958.5" text-anchor="middle" dominant-baseline="central" transform="matrix(1 0 0 1 -1374 -446)">«extend»</text></g></g><g><path fill="none" stroke="#000000" paint-order="fill stroke markers" d=" M 897 530 L 698 483" stroke-miterlimit="10" stroke-dasharray="3"/></g><g><path fill="none" stroke="#000000" paint-order="fill stroke markers" d=" M 708.8581504417502 481.23915674055934 L 698 483 L 706.9229760178623 489.4327675991482" stroke-miterlimit="10" stroke-dasharray=""/></g><g><rect fill="#ffffff" stroke="none" x="2138" y="975" width="53.49169921875" height="13" transform="matrix(1 0 0 1 -1374 -446)"/></g><g><g><path fill="none" stroke="none"/><text fill="#000000" stroke="none" font-family="Arial" font-size="13px" font-style="normal" font-weight="normal" text-decoration="undefined" x="2164.745849609375" y="981.5" text-anchor="middle" dominant-baseline="central" transform="matrix(1 0 0 1 -1374 -446)">«extend»</text></g></g><g><path fill="none" stroke="#000000" paint-order="fill stroke markers" d=" M 867 569 L 677 486" stroke-miterlimit="10" stroke-dasharray="3"/></g><g><path fill="none" stroke="#000000" paint-order="fill stroke markers" d=" M 687.9979811861567 486.21073639680503 L 677 486 L 684.6277339408698 493.9257602113173" stroke-miterlimit="10" stroke-dasharray=""/></g><g><rect fill="#ffffff" stroke="none" x="2108" y="994" width="53.49169921875" height="13" transform="matrix(1 0 0 1 -1374 -446)"/></g><g><g><path fill="none" stroke="none"/><text fill="#000000" stroke="none" font-family="Arial" font-size="13px" font-style="normal" font-weight="normal" text-decoration="undefined" x="2134.745849609375" y="1000.5" text-anchor="middle" dominant-baseline="central" transform="matrix(1 0 0 1 -1374 -446)">«extend»</text></g></g><g><path fill="none" stroke="#46D346" paint-order="fill stroke markers" d=" M 250 810 L 250 482 L 250 482 A 8 8 0 0 1 258 474 L 570 474" stroke-miterlimit="10" stroke-dasharray=""/></g><g><rect fill="#C0C0C0" stroke="none" x="1831" y="1127" width="166.4000000000001" height="15" transform="matrix(1 0 0 1 -1374 -446)" fill-opacity="0.2"/></g><g><rect fill="#C0C0C0" stroke="none" x="1831" y="1141" width="416" height="930" transform="matrix(1 0 0 1 -1374 -446)" fill-opacity="0.2"/></g><g><rect fill="#FFD8D8" stroke="none" x="1824" y="1135" width="416" height="929" transform="matrix(1 0 0 1 -1374 -446)"/></g><g><path fill="none" stroke="#FFD8D8" paint-order="fill stroke markers" d=" M 450 689 L 866 689 L 866 1618 L 450 1618 L 450 689 Z Z" stroke-miterlimit="10" stroke-dasharray=""/></g><g><rect fill="#FFD8D8" stroke="none" x="1824" y="1120" width="166.4000000000001" height="15" transform="matrix(1 0 0 1 -1374 -446)"/></g><g><path fill="none" stroke="#FFD8D8" paint-order="fill stroke markers" d=" M 450 674 L 616.4000000000001 674 L 616.4000000000001 689 L 450 689 L 450 674 Z Z" stroke-miterlimit="10" stroke-dasharray=""/></g><g><rect fill="#FFD8D8" stroke="none" x="1824" y="1134" width="416" height="930" transform="matrix(1 0 0 1 -1374 -446)"/></g><g><path fill="none" stroke="#FFD8D8" paint-order="fill stroke markers" d=" M 450 688 L 866 688 L 866 1618 L 450 1618 L 450 688 Z Z" stroke-miterlimit="10" stroke-dasharray=""/></g><g><g><path fill="none" stroke="none"/><text fill="#000000" stroke="none" font-family="Arial" font-size="13px" font-style="normal" font-weight="bold" text-decoration="undefined" x="2032.5" y="1148.5" text-anchor="middle" dominant-baseline="central" transform="matrix(1 0 0 1 -1374 -446)">Donation Management</text></g></g><g><path fill="#C0C0C0" stroke="none" paint-order="stroke fill markers" d=" M 577 826.5 C 577 816.835016 604.0867696 809 637.5 809 C 670.9132304 809 698 816.835016 698 826.5 C 698 836.164984 670.9132304 844 637.5 844 C 604.0867696 844 577 836.164984 577 826.5 Z" fill-opacity="0.2"/></g><g><path fill="#ffffff" stroke="none" paint-order="stroke fill markers" d=" M 570 819.5 C 570 809.835016 597.0867696 802 630.5 802 C 663.9132304 802 691 809.835016 691 819.5 C 691 829.164984 663.9132304 837 630.5 837 C 597.0867696 837 570 829.164984 570 819.5 Z"/></g><g><path fill="none" stroke="#000000" paint-order="fill stroke markers" d=" M 570 819.5 C 570 809.835016 597.0867696 802 630.5 802 C 663.9132304 802 691 809.835016 691 819.5 C 691 829.164984 663.9132304 837 630.5 837 C 597.0867696 837 570 829.164984 570 819.5 Z" stroke-miterlimit="10" stroke-dasharray=""/></g><g><g><path fill="none" stroke="none"/><text fill="#000000" stroke="none" font-family="Arial" font-size="13px" font-style="normal" font-weight="bold" text-decoration="undefined" x="2004.5" y="1266.5" text-anchor="middle" dominant-baseline="central" transform="matrix(1 0 0 1 -1374 -446)">Tạo đợt mới</text></g></g><g><path fill="#C0C0C0" stroke="none" paint-order="stroke fill markers" d=" M 545 906.5 C 545 896.835016 573.6537728000001 889 609 889 C 644.3462271999999 889 673 896.835016 673 906.5 C 673 916.164984 644.3462271999999 924 609 924 C 573.6537728000001 924 545 916.164984 545 906.5 Z" fill-opacity="0.2"/></g><g><path fill="#ffffff" stroke="none" paint-order="stroke fill markers" d=" M 538 899.5 C 538 889.835016 566.6537728000001 882 602 882 C 637.3462271999999 882 666 889.835016 666 899.5 C 666 909.164984 637.3462271999999 917 602 917 C 566.6537728000001 917 538 909.164984 538 899.5 Z"/></g><g><path fill="none" stroke="#000000" paint-order="fill stroke markers" d=" M 538 899.5 C 538 889.835016 566.6537728000001 882 602 882 C 637.3462271999999 882 666 889.835016 666 899.5 C 666 909.164984 637.3462271999999 917 602 917 C 566.6537728000001 917 538 909.164984 538 899.5 Z" stroke-miterlimit="10" stroke-dasharray=""/></g><g><g><path fill="none" stroke="none"/><text fill="#000000" stroke="none" font-family="Arial" font-size="13px" font-style="normal" font-weight="bold" text-decoration="undefined" x="1976" y="1346.5" text-anchor="middle" dominant-baseline="central" transform="matrix(1 0 0 1 -1374 -446)">Cập nhật đợt</text></g></g><g><path fill="#C0C0C0" stroke="none" paint-order="stroke fill markers" d=" M 641 986.5 C 641 976.835016 677.0410735999999 969 721.5 969 C 765.9589264000001 969 802 976.835016 802 986.5 C 802 996.164984 765.9589264000001 1004 721.5 1004 C 677.0410735999999 1004 641 996.164984 641 986.5 Z" fill-opacity="0.2"/></g><g><path fill="#ffffff" stroke="none" paint-order="stroke fill markers" d=" M 634 979.5 C 634 969.835016 670.0410735999999 962 714.5 962 C 758.9589264000001 962 795 969.835016 795 979.5 C 795 989.164984 758.9589264000001 997 714.5 997 C 670.0410735999999 997 634 989.164984 634 979.5 Z"/></g><g><path fill="none" stroke="#000000" paint-order="fill stroke markers" d=" M 634 979.5 C 634 969.835016 670.0410735999999 962 714.5 962 C 758.9589264000001 962 795 969.835016 795 979.5 C 795 989.164984 758.9589264000001 997 714.5 997 C 670.0410735999999 997 634 989.164984 634 979.5 Z" stroke-miterlimit="10" stroke-dasharray=""/></g><g><g><path fill="none" stroke="none"/><text fill="#000000" stroke="none" font-family="Arial" font-size="13px" font-style="normal" font-weight="bold" text-decoration="undefined" x="2088.5" y="1426.5" text-anchor="middle" dominant-baseline="central" transform="matrix(1 0 0 1 -1374 -446)">Duyệt danh sách</text></g></g><g><path fill="#C0C0C0" stroke="none" paint-order="stroke fill markers" d=" M 593 1066.5 C 593 1056.835016 619.1913391999999 1049 651.5 1049 C 683.8086607999999 1049 710 1056.835016 710 1066.5 C 710 1076.164984 683.8086607999999 1084 651.5 1084 C 619.1913391999999 1084 593 1076.164984 593 1066.5 Z" fill-opacity="0.2"/></g><g><path fill="#ffffff" stroke="none" paint-order="stroke fill markers" d=" M 586 1059.5 C 586 1049.835016 612.1913391999999 1042 644.5 1042 C 676.8086607999999 1042 703 1049.835016 703 1059.5 C 703 1069.164984 676.8086607999999 1077 644.5 1077 C 612.1913391999999 1077 586 1069.164984 586 1059.5 Z"/></g><g><path fill="none" stroke="#000000" paint-order="fill stroke markers" d=" M 586 1059.5 C 586 1049.835016 612.1913391999999 1042 644.5 1042 C 676.8086607999999 1042 703 1049.835016 703 1059.5 C 703 1069.164984 676.8086607999999 1077 644.5 1077 C 612.1913391999999 1077 586 1069.164984 586 1059.5 Z" stroke-miterlimit="10" stroke-dasharray=""/></g><g><g><path fill="none" stroke="none"/><text fill="#000000" stroke="none" font-family="Arial" font-size="13px" font-style="normal" font-weight="bold" text-decoration="undefined" x="2018.5" y="1506.5" text-anchor="middle" dominant-baseline="central" transform="matrix(1 0 0 1 -1374 -446)">Xem chi tiết</text></g></g><g><path fill="none" stroke="#46D346" paint-order="fill stroke markers" d=" M 253 818 L 570 818" stroke-miterlimit="10" stroke-dasharray=""/></g><g><path fill="none" stroke="#46D346" paint-order="fill stroke markers" d=" M 253 890 L 253 890 L 253 890 A 8 8 0 0 0 261 898 L 538 898" stroke-miterlimit="10" stroke-dasharray=""/></g><g><path fill="none" stroke="#E55959" paint-order="fill stroke markers" d=" M 61 546 L 178 546 L 178 546 A 8 8 0 0 1 186 554 L 186 987 L 186 987 A 8 8 0 0 0 194 995 L 634 995" stroke-miterlimit="10" stroke-dasharray=""/></g><g><path fill="none" stroke="#4BBAF2" paint-order="fill stroke markers" d=" M 133 874 L 138 874 L 138 874 A 8 8 0 0 1 146 882 L 146 962 L 146 962 A 8 8 0 0 0 154 970 L 634 970" stroke-miterlimit="10" stroke-dasharray=""/></g><g><path fill="none" stroke="#4BBAF2" paint-order="fill stroke markers" d=" M 107 898 L 107 1058 L 107 1058 A 8 8 0 0 0 115 1066 L 586 1066" stroke-miterlimit="10" stroke-dasharray=""/></g><g><path fill="none" stroke="#E55959" paint-order="fill stroke markers" d=" M 35 562 L 35 1067 L 35 1067 A 8 8 0 0 0 43 1075 L 586 1075" stroke-miterlimit="10" stroke-dasharray=""/></g><g><path fill="#C0C0C0" stroke="none" paint-order="stroke fill markers" d=" M 569 1330.5 C 569 1320.835016 593.6243360000001 1313 624 1313 C 654.3756639999999 1313 679 1320.835016 679 1330.5 C 679 1340.164984 654.3756639999999 1348 624 1348 C 593.6243360000001 1348 569 1340.164984 569 1330.5 Z" fill-opacity="0.2"/></g><g><path fill="#ffffff" stroke="none" paint-order="stroke fill markers" d=" M 562 1323.5 C 562 1313.835016 586.6243360000001 1306 617 1306 C 647.3756639999999 1306 672 1313.835016 672 1323.5 C 672 1333.164984 647.3756639999999 1341 617 1341 C 586.6243360000001 1341 562 1333.164984 562 1323.5 Z"/></g><g><path fill="none" stroke="#000000" paint-order="fill stroke markers" d=" M 562 1323.5 C 562 1313.835016 586.6243360000001 1306 617 1306 C 647.3756639999999 1306 672 1313.835016 672 1323.5 C 672 1333.164984 647.3756639999999 1341 617 1341 C 586.6243360000001 1341 562 1333.164984 562 1323.5 Z" stroke-miterlimit="10" stroke-dasharray=""/></g><g><g><path fill="none" stroke="none"/><text fill="#000000" stroke="none" font-family="Arial" font-size="13px" font-style="normal" font-weight="bold" text-decoration="undefined" x="1991" y="1770.5" text-anchor="middle" dominant-baseline="central" transform="matrix(1 0 0 1 -1374 -446)">Quyên góp</text></g></g><g><path fill="#C0C0C0" stroke="none" paint-order="stroke fill markers" d=" M 569 1410.5 C 569 1400.835016 598.7730607999999 1393 635.5 1393 C 672.2269392000001 1393 702 1400.835016 702 1410.5 C 702 1420.164984 672.2269392000001 1428 635.5 1428 C 598.7730607999999 1428 569 1420.164984 569 1410.5 Z" fill-opacity="0.2"/></g><g><path fill="#ffffff" stroke="none" paint-order="stroke fill markers" d=" M 562 1403.5 C 562 1393.835016 591.7730607999999 1386 628.5 1386 C 665.2269392000001 1386 695 1393.835016 695 1403.5 C 695 1413.164984 665.2269392000001 1421 628.5 1421 C 591.7730607999999 1421 562 1413.164984 562 1403.5 Z"/></g><g><path fill="none" stroke="#000000" paint-order="fill stroke markers" d=" M 562 1403.5 C 562 1393.835016 591.7730607999999 1386 628.5 1386 C 665.2269392000001 1386 695 1393.835016 695 1403.5 C 695 1413.164984 665.2269392000001 1421 628.5 1421 C 591.7730607999999 1421 562 1413.164984 562 1403.5 Z" stroke-miterlimit="10" stroke-dasharray=""/></g><g><g><path fill="none" stroke="none"/><text fill="#000000" stroke="none" font-family="Arial" font-size="13px" font-style="normal" font-weight="bold" text-decoration="undefined" x="2002.5" y="1850.5" text-anchor="middle" dominant-baseline="central" transform="matrix(1 0 0 1 -1374 -446)">Xác nhận tiền</text></g></g><g><path fill="#C0C0C0" stroke="none" paint-order="stroke fill markers" d=" M 577 1490.5 C 577 1480.835016 599.8334752000001 1473 628 1473 C 656.1665247999999 1473 679 1480.835016 679 1490.5 C 679 1500.164984 656.1665247999999 1508 628 1508 C 599.8334752000001 1508 577 1500.164984 577 1490.5 Z" fill-opacity="0.2"/></g><g><path fill="#ffffff" stroke="none" paint-order="stroke fill markers" d=" M 570 1483.5 C 570 1473.835016 592.8334752000001 1466 621 1466 C 649.1665247999999 1466 672 1473.835016 672 1483.5 C 672 1493.164984 649.1665247999999 1501 621 1501 C 592.8334752000001 1501 570 1493.164984 570 1483.5 Z"/></g><g><path fill="none" stroke="#000000" paint-order="fill stroke markers" d=" M 570 1483.5 C 570 1473.835016 592.8334752000001 1466 621 1466 C 649.1665247999999 1466 672 1473.835016 672 1483.5 C 672 1493.164984 649.1665247999999 1501 621 1501 C 592.8334752000001 1501 570 1493.164984 570 1483.5 Z" stroke-miterlimit="10" stroke-dasharray=""/></g><g><g><path fill="none" stroke="none"/><text fill="#000000" stroke="none" font-family="Arial" font-size="13px" font-style="normal" font-weight="bold" text-decoration="undefined" x="1995" y="1930.5" text-anchor="middle" dominant-baseline="central" transform="matrix(1 0 0 1 -1374 -446)">Lịch sử</text></g></g><g><path fill="none" stroke="#E55959" paint-order="fill stroke markers" d=" M 35 562 L 35 1331 L 35 1331 A 8 8 0 0 0 43 1339 L 562 1339" stroke-miterlimit="10" stroke-dasharray=""/></g><g><path fill="none" stroke="#4BBAF2" paint-order="fill stroke markers" d=" M 122 898 L 122 1306 L 122 1306 A 8 8 0 0 0 130 1314 L 562 1314" stroke-miterlimit="10" stroke-dasharray=""/></g><g><path fill="none" stroke="#46D346" paint-order="fill stroke markers" d=" M 227 890 L 227 1395 L 227 1395 A 8 8 0 0 0 235 1403 L 562 1403" stroke-miterlimit="10" stroke-dasharray=""/></g><g><path fill="none" stroke="#4BBAF2" paint-order="fill stroke markers" d=" M 90 898 L 90 1474 L 90 1474 A 8 8 0 0 0 98 1482 L 570 1482" stroke-miterlimit="10" stroke-dasharray=""/></g></g></svg>